<svg width="27" height="35" viewBox="0 0 27 35" fill="none" xmlns="http://www.w3.org/2000/svg">
<path d="M23.3333 11.6667H21.6667V8.33333C21.6667 3.73333 17.9333 0 13.3333 0C8.73333 0 5 3.73333 5 8.33333V11.6667H3.33333C1.5 11.6667 0 13.1667 0 15V31.6667C0 33.5 1.5 35 3.33333 35H23.3333C25.1667 35 26.6667 33.5 26.6667 31.6667V15C26.6667 13.1667 25.1667 11.6667 23.3333 11.6667ZM8.33333 8.33333C8.33333 5.56667 10.5667 3.33333 13.3333 3.33333C16.1 3.33333 18.3333 5.56667 18.3333 8.33333V11.6667H8.33333V8.33333ZM23.3333 31.6667H3.33333V15H23.3333V31.6667ZM13.3333 26.6667C15.1667 26.6667 16.6667 25.1667 16.6667 23.3333C16.6667 21.5 15.1667 20 13.3333 20C11.5 20 10 21.5 10 23.3333C10 25.1667 11.5 26.6667 13.3333 26.6667Z" fill="#858585"/>
</svg>
