<svg width="27" height="26" viewBox="0 0 27 26" fill="none" xmlns="http://www.w3.org/2000/svg">
<path d="M13.3333 3.25C15.1667 3.25 16.6667 4.7125 16.6667 6.5C16.6667 8.2875 15.1667 9.75 13.3333 9.75C11.5 9.75 10 8.2875 10 6.5C10 4.7125 11.5 3.25 13.3333 3.25ZM13.3333 19.5C17.8333 19.5 23 21.5963 23.3333 22.75H3.33333C3.71667 21.58 8.85 19.5 13.3333 19.5ZM13.3333 0C9.65 0 6.66667 2.90875 6.66667 6.5C6.66667 10.0913 9.65 13 13.3333 13C17.0167 13 20 10.0913 20 6.5C20 2.90875 17.0167 0 13.3333 0ZM13.3333 16.25C8.88333 16.25 0 18.4275 0 22.75V26H26.6667V22.75C26.6667 18.4275 17.7833 16.25 13.3333 16.25Z" fill="#1C1C1C"/>
</svg>
