<svg width="20" height="25" viewBox="0 0 20 25" fill="none" xmlns="http://www.w3.org/2000/svg">
<path d="M10 24.375C11.375 24.375 12.5 23.25 12.5 21.875H7.5C7.5 23.25 8.625 24.375 10 24.375ZM17.5 16.875V10.625C17.5 6.7875 15.4625 3.575 11.875 2.725V1.875C11.875 0.8375 11.0375 0 10 0C8.9625 0 8.125 0.8375 8.125 1.875V2.725C4.55 3.575 2.5 6.775 2.5 10.625V16.875L0 19.375V20.625H20V19.375L17.5 16.875ZM15 18.125H5V10.625C5 7.525 6.8875 5 10 5C13.1125 5 15 7.525 15 10.625V18.125Z" fill="#1C1C1C"/>
</svg>
